<svg xmlns="http://www.w3.org/2000/svg" xmlns:xlink="http://www.w3.org/1999/xlink" width="500" zoomAndPan="magnify" viewBox="0 0 375 374.999991" height="500" preserveAspectRatio="xMidYMid meet" version="1.0"><defs><g/><clipPath id="69e79ee5de"><rect x="0" width="331" y="0" height="74"/></clipPath><clipPath id="69406481fa"><rect x="0" width="37" y="0" height="15"/></clipPath><clipPath id="dfcf704622"><path d="M 162 190 L 167 190 L 167 199.933594 L 162 199.933594 Z M 162 190 " clip-rule="nonzero"/></clipPath><clipPath id="2bdf45f9cd"><path d="M 156 190 L 162 190 L 162 199.933594 L 156 199.933594 Z M 156 190 " clip-rule="nonzero"/></clipPath><clipPath id="82dc0ee1c7"><path d="M 151 190 L 156 190 L 156 199.933594 L 151 199.933594 Z M 151 190 " clip-rule="nonzero"/></clipPath><clipPath id="a737ab25a2"><path d="M 146 190 L 151 190 L 151 199.933594 L 146 199.933594 Z M 146 190 " clip-rule="nonzero"/></clipPath><clipPath id="720d780f45"><path d="M 168 190 L 171.515625 190 L 171.515625 194 L 168 194 Z M 168 190 " clip-rule="nonzero"/></clipPath><clipPath id="a709cfff9b"><path d="M 141.515625 190 L 145 190 L 145 194 L 141.515625 194 Z M 141.515625 190 " clip-rule="nonzero"/></clipPath><clipPath id="0dacc124b4"><path d="M 152 175.183594 L 159 175.183594 L 159 180 L 152 180 Z M 152 175.183594 " clip-rule="nonzero"/></clipPath><clipPath id="9dc7c00777"><path d="M 336.957031 208.105469 L 355.980469 208.105469 L 355.980469 224.84375 L 336.957031 224.84375 Z M 336.957031 208.105469 " clip-rule="nonzero"/></clipPath><clipPath id="4e2d33e814"><path d="M 349.886719 208.105469 C 353.199219 208.296875 355.820312 210.921875 355.972656 214.191406 L 355.972656 215.867188 C 355.820312 219.101562 353.199219 221.722656 349.964844 221.722656 L 345.171875 221.722656 C 344.296875 222.75 343.347656 223.664062 342.242188 224.425781 L 341.519531 224.84375 C 341.140625 224.84375 341.0625 224.613281 341.179688 224.234375 C 341.445312 223.398438 341.40625 222.523438 341.101562 221.722656 L 340.988281 221.382812 C 338.667969 220.621094 336.992188 218.414062 336.957031 215.867188 L 336.957031 214.15625 C 336.957031 210.921875 339.617188 208.296875 343.042969 208.105469 L 349.964844 208.105469 Z M 349.886719 208.105469 " clip-rule="nonzero"/></clipPath><clipPath id="313b767c72"><path d="M 0.957031 0.105469 L 19.980469 0.105469 L 19.980469 16.84375 L 0.957031 16.84375 Z M 0.957031 0.105469 " clip-rule="nonzero"/></clipPath><clipPath id="72fcb74e7f"><path d="M 13.886719 0.105469 C 17.199219 0.296875 19.820312 2.921875 19.972656 6.191406 L 19.972656 7.867188 C 19.820312 11.101562 17.199219 13.722656 13.964844 13.722656 L 9.171875 13.722656 C 8.296875 14.75 7.347656 15.664062 6.242188 16.425781 L 5.519531 16.84375 C 5.140625 16.84375 5.0625 16.613281 5.179688 16.234375 C 5.445312 15.398438 5.40625 14.523438 5.101562 13.722656 L 4.988281 13.382812 C 2.667969 12.621094 0.992188 10.414062 0.957031 7.867188 L 0.957031 6.15625 C 0.957031 2.921875 3.617188 0.296875 7.042969 0.105469 L 13.964844 0.105469 Z M 13.886719 0.105469 " clip-rule="nonzero"/></clipPath><clipPath id="296a960934"><rect x="0" width="20" y="0" height="17"/></clipPath></defs><g transform="matrix(1, 0, 0, 1, 18, 150)"><g clip-path="url(#69e79ee5de)"><g fill="#ffffff" fill-opacity="1"><g transform="translate(2.097627, 57.234638)"><g><path d="M 32.28125 -21.015625 C 29.664062 -21.015625 27.050781 -21.023438 24.4375 -21.046875 C 21.820312 -21.078125 19.207031 -21.09375 16.59375 -21.09375 C 15.84375 -21.09375 15.097656 -21.03125 14.359375 -20.90625 C 13.617188 -20.789062 12.960938 -20.425781 12.390625 -19.8125 C 11.773438 -19.1875 11.394531 -18.484375 11.25 -17.703125 C 11.113281 -16.921875 11.066406 -16.222656 11.109375 -15.609375 C 11.160156 -13.660156 11.1875 -11.722656 11.1875 -9.796875 C 11.1875 -7.867188 11.1875 -5.929688 11.1875 -3.984375 C 11.1875 -3.554688 11.1875 -3.128906 11.1875 -2.703125 C 11.1875 -2.273438 11.1875 -1.847656 11.1875 -1.421875 C 11.132812 -1.046875 11.082031 -0.757812 11.03125 -0.5625 C 10.988281 -0.375 10.734375 -0.257812 10.265625 -0.21875 C 9.210938 -0.164062 8.175781 -0.113281 7.15625 -0.0625 C 6.132812 -0.0195312 5.078125 -0.0234375 3.984375 -0.078125 C 3.609375 -0.078125 3.078125 -0.0507812 2.390625 0 C 1.703125 0.0507812 1.164062 -0.0195312 0.78125 -0.21875 C 0.445312 -0.40625 0.253906 -0.648438 0.203125 -0.953125 C 0.160156 -1.265625 0.140625 -1.613281 0.140625 -2 C 0.191406 -9.59375 0.164062 -17.203125 0.0625 -24.828125 C -0.03125 -32.453125 -0.0234375 -40.066406 0.078125 -47.671875 C 0.117188 -48.285156 0.113281 -49.054688 0.0625 -49.984375 C 0.0195312 -50.910156 0.238281 -51.609375 0.71875 -52.078125 C 1.09375 -52.460938 1.597656 -52.65625 2.234375 -52.65625 C 2.878906 -52.65625 3.441406 -52.65625 3.921875 -52.65625 C 6.578125 -52.65625 9.242188 -52.675781 11.921875 -52.71875 C 14.609375 -52.769531 17.285156 -52.796875 19.953125 -52.796875 C 22.660156 -52.890625 25.367188 -52.890625 28.078125 -52.796875 C 28.359375 -52.796875 28.898438 -52.804688 29.703125 -52.828125 C 30.515625 -52.859375 31.394531 -52.875 32.34375 -52.875 C 33.289062 -52.875 34.097656 -52.800781 34.765625 -52.65625 C 35.429688 -52.507812 35.765625 -52.269531 35.765625 -51.9375 C 35.765625 -50.707031 35.765625 -49.460938 35.765625 -48.203125 C 35.765625 -46.941406 35.765625 -45.691406 35.765625 -44.453125 C 35.765625 -43.742188 35.550781 -43.316406 35.125 -43.171875 C 34.695312 -43.035156 34.207031 -43 33.65625 -43.0625 C 33.113281 -43.132812 32.609375 -43.171875 32.140625 -43.171875 C 29.003906 -43.171875 25.867188 -43.171875 22.734375 -43.171875 C 19.597656 -43.171875 16.460938 -43.171875 13.328125 -43.171875 C 12.847656 -43.171875 12.429688 -43.003906 12.078125 -42.671875 C 11.722656 -42.347656 11.546875 -41.921875 11.546875 -41.390625 L 11.546875 -32.421875 C 11.546875 -31.472656 11.925781 -30.9375 12.6875 -30.8125 C 13.445312 -30.695312 14.15625 -30.613281 14.8125 -30.5625 C 15.769531 -30.5625 16.722656 -30.5625 17.671875 -30.5625 C 18.617188 -30.5625 19.546875 -30.5625 20.453125 -30.5625 C 22.253906 -30.5625 24.082031 -30.582031 25.9375 -30.625 C 27.789062 -30.675781 29.617188 -30.703125 31.421875 -30.703125 C 32.128906 -30.703125 32.828125 -30.609375 33.515625 -30.421875 C 34.210938 -30.234375 34.609375 -29.710938 34.703125 -28.859375 C 34.742188 -28.566406 34.753906 -28.28125 34.734375 -28 C 34.710938 -27.71875 34.675781 -27.429688 34.625 -27.140625 C 34.582031 -26.671875 34.570312 -26.1875 34.59375 -25.6875 C 34.613281 -25.1875 34.648438 -24.675781 34.703125 -24.15625 C 34.742188 -23.820312 34.785156 -23.507812 34.828125 -23.21875 C 34.878906 -22.9375 34.859375 -22.628906 34.765625 -22.296875 C 34.628906 -21.398438 34.015625 -20.953125 32.921875 -20.953125 C 32.773438 -20.992188 32.5625 -21.015625 32.28125 -21.015625 Z M 32.28125 -21.015625 "/></g></g></g><g fill="#ffffff" fill-opacity="1"><g transform="translate(38.006942, 57.234638)"><g><path d="M 10.609375 -1 C 10.285156 -0.570312 9.8125 -0.332031 9.1875 -0.28125 C 8.570312 -0.238281 7.929688 -0.171875 7.265625 -0.078125 C 6.648438 -0.0234375 5.925781 0.0195312 5.09375 0.0625 C 4.257812 0.113281 3.472656 0.0351562 2.734375 -0.171875 C 2.003906 -0.390625 1.445312 -0.832031 1.0625 -1.5 C 0.5 -2.539062 0.164062 -3.691406 0.0625 -4.953125 C -0.03125 -6.210938 -0.00390625 -7.492188 0.140625 -8.796875 C 0.285156 -10.109375 0.359375 -11.332031 0.359375 -12.46875 C 0.398438 -14.695312 0.429688 -16.914062 0.453125 -19.125 C 0.484375 -21.332031 0.519531 -23.554688 0.5625 -25.796875 C 0.613281 -30.210938 0.625 -34.640625 0.59375 -39.078125 C 0.570312 -43.523438 0.515625 -47.957031 0.421875 -52.375 C 0.421875 -53.601562 0.679688 -54.488281 1.203125 -55.03125 C 1.734375 -55.582031 2.425781 -55.90625 3.28125 -56 C 4.132812 -56.09375 5.054688 -56.066406 6.046875 -55.921875 C 7.046875 -55.785156 8 -55.671875 8.90625 -55.578125 C 9.90625 -55.484375 10.554688 -54.945312 10.859375 -53.96875 C 11.171875 -53 11.3125 -51.953125 11.28125 -50.828125 C 11.257812 -49.710938 11.226562 -48.828125 11.1875 -48.171875 C 11.09375 -45.984375 11.03125 -43.769531 11 -41.53125 C 10.976562 -39.300781 10.96875 -37.070312 10.96875 -34.84375 C 10.96875 -29.425781 10.96875 -24.007812 10.96875 -18.59375 C 10.96875 -13.175781 10.96875 -7.757812 10.96875 -2.34375 C 10.96875 -1.78125 10.847656 -1.332031 10.609375 -1 Z M 10.609375 -1 "/></g></g></g><g fill="#ffffff" fill-opacity="1"><g transform="translate(49.477383, 57.234638)"><g><path d="M 27.9375 -0.5 C 25.65625 -0.351562 23.375 -0.234375 21.09375 -0.140625 C 18.8125 -0.046875 16.53125 0 14.25 0 C 10.351562 0 7.144531 -1.351562 4.625 -4.0625 C 2.113281 -6.769531 0.691406 -10.351562 0.359375 -14.8125 C 0.0664062 -18.851562 -0.03125 -22.914062 0.0625 -27 C 0.164062 -31.082031 0.238281 -35.144531 0.28125 -39.1875 C 0.28125 -39.800781 0.613281 -40.238281 1.28125 -40.5 C 1.945312 -40.757812 2.765625 -40.925781 3.734375 -41 C 4.710938 -41.070312 5.640625 -41.070312 6.515625 -41 C 7.398438 -40.925781 8.054688 -40.890625 8.484375 -40.890625 C 9.429688 -40.890625 10.101562 -40.554688 10.5 -39.890625 C 10.90625 -39.234375 11.144531 -38.414062 11.21875 -37.4375 C 11.289062 -36.46875 11.289062 -35.492188 11.21875 -34.515625 C 11.144531 -33.546875 11.109375 -32.773438 11.109375 -32.203125 C 11.066406 -29.453125 10.984375 -26.707031 10.859375 -23.96875 C 10.742188 -21.238281 10.851562 -18.519531 11.1875 -15.8125 C 11.425781 -13.863281 12.148438 -12.238281 13.359375 -10.9375 C 14.566406 -9.632812 16.191406 -8.910156 18.234375 -8.765625 C 18.328125 -8.765625 18.421875 -8.765625 18.515625 -8.765625 C 18.617188 -8.765625 18.71875 -8.765625 18.8125 -8.765625 C 21 -8.765625 22.875 -9.546875 24.4375 -11.109375 C 26.007812 -12.679688 26.816406 -14.609375 26.859375 -16.890625 C 26.953125 -20.117188 27.019531 -23.382812 27.0625 -26.6875 C 27.113281 -29.988281 27.09375 -33.421875 27 -36.984375 C 26.957031 -38.640625 27.171875 -39.707031 27.640625 -40.1875 C 28.117188 -40.65625 28.890625 -40.984375 29.953125 -41.171875 C 31.023438 -41.367188 32.144531 -41.40625 33.3125 -41.28125 C 34.476562 -41.164062 35.472656 -40.867188 36.296875 -40.390625 C 37.128906 -39.921875 37.546875 -39.257812 37.546875 -38.40625 C 37.546875 -35.21875 37.5 -32.03125 37.40625 -28.84375 C 37.3125 -25.664062 37.21875 -22.488281 37.125 -19.3125 C 37.070312 -17.070312 37.082031 -14.859375 37.15625 -12.671875 C 37.226562 -10.492188 37.429688 -8.289062 37.765625 -6.0625 C 38.046875 -4.34375 37.898438 -3.09375 37.328125 -2.3125 C 36.765625 -1.53125 35.957031 -1.03125 34.90625 -0.8125 C 33.863281 -0.601562 32.710938 -0.519531 31.453125 -0.5625 C 30.191406 -0.613281 29.019531 -0.59375 27.9375 -0.5 Z M 27.9375 -0.5 "/></g></g></g><g fill="#ffffff" fill-opacity="1"><g transform="translate(87.524217, 57.234638)"><g><path d="M 21.65625 -8.625 C 21.46875 -9 21.242188 -9.304688 20.984375 -9.546875 C 20.722656 -9.785156 20.378906 -9.90625 19.953125 -9.90625 C 19.472656 -9.90625 19.046875 -9.710938 18.671875 -9.328125 C 17.578125 -8.234375 16.554688 -7.144531 15.609375 -6.0625 C 14.421875 -4.726562 13.085938 -3.515625 11.609375 -2.421875 C 10.140625 -1.328125 8.550781 -0.566406 6.84375 -0.140625 C 5.132812 0.285156 3.304688 0.164062 1.359375 -0.5 C 0.359375 -0.875 -0.09375 -1.347656 0 -1.921875 C 0.09375 -2.492188 0.378906 -3.253906 0.859375 -4.203125 C 1.753906 -5.910156 2.878906 -7.453125 4.234375 -8.828125 C 5.585938 -10.210938 6.8125 -11.6875 7.90625 -13.25 C 8.757812 -14.4375 9.539062 -15.644531 10.25 -16.875 C 10.96875 -18.113281 11.394531 -19.398438 11.53125 -20.734375 C 11.675781 -22.066406 11.300781 -23.421875 10.40625 -24.796875 C 9.59375 -26.078125 8.710938 -27.285156 7.765625 -28.421875 C 6.816406 -29.566406 5.867188 -30.734375 4.921875 -31.921875 C 4.535156 -32.441406 3.953125 -33.175781 3.171875 -34.125 C 2.390625 -35.070312 1.6875 -36.054688 1.0625 -37.078125 C 0.445312 -38.109375 0.1875 -38.953125 0.28125 -39.609375 C 0.425781 -40.234375 0.9375 -40.660156 1.8125 -40.890625 C 2.695312 -41.128906 3.671875 -41.257812 4.734375 -41.28125 C 5.804688 -41.3125 6.628906 -41.300781 7.203125 -41.25 C 8.429688 -41.207031 9.613281 -40.957031 10.75 -40.5 C 11.894531 -40.050781 12.820312 -39.28125 13.53125 -38.1875 C 13.726562 -38 13.894531 -37.804688 14.03125 -37.609375 C 14.175781 -37.421875 14.296875 -37.234375 14.390625 -37.046875 C 14.773438 -36.578125 15.15625 -36.066406 15.53125 -35.515625 C 15.914062 -34.972656 16.269531 -34.414062 16.59375 -33.84375 C 16.925781 -33.269531 17.257812 -32.75 17.59375 -32.28125 C 17.925781 -31.757812 18.351562 -31.5 18.875 -31.5 C 18.925781 -31.5 18.960938 -31.5 18.984375 -31.5 C 19.015625 -31.5 19.050781 -31.5 19.09375 -31.5 C 19.613281 -31.5 20.039062 -31.660156 20.375 -31.984375 C 20.894531 -32.515625 21.367188 -33.039062 21.796875 -33.5625 C 22.222656 -34.082031 22.675781 -34.601562 23.15625 -35.125 C 24.101562 -36.21875 25.015625 -37.25 25.890625 -38.21875 C 26.773438 -39.195312 27.738281 -39.898438 28.78125 -40.328125 C 29.726562 -40.703125 30.722656 -40.9375 31.765625 -41.03125 C 32.816406 -41.132812 33.84375 -41.160156 34.84375 -41.109375 C 35.507812 -41.109375 36.207031 -41.046875 36.9375 -40.921875 C 37.675781 -40.804688 38.210938 -40.546875 38.546875 -40.140625 C 38.878906 -39.742188 38.738281 -39.09375 38.125 -38.1875 C 36.738281 -36.101562 35.203125 -34.109375 33.515625 -32.203125 C 31.835938 -30.304688 30.378906 -28.265625 29.140625 -26.078125 C 27.804688 -23.753906 27.363281 -21.535156 27.8125 -19.421875 C 28.269531 -17.304688 29.378906 -15.25 31.140625 -13.25 C 31.941406 -12.351562 32.9375 -11.257812 34.125 -9.96875 C 35.3125 -8.6875 36.378906 -7.34375 37.328125 -5.9375 C 38.285156 -4.539062 38.785156 -3.203125 38.828125 -1.921875 C 38.878906 -1.210938 38.570312 -0.757812 37.90625 -0.5625 C 37.238281 -0.375 36.460938 -0.300781 35.578125 -0.34375 C 34.703125 -0.394531 33.957031 -0.421875 33.34375 -0.421875 C 30.96875 -0.421875 28.78125 -0.941406 26.78125 -1.984375 C 24.789062 -3.035156 23.320312 -4.722656 22.375 -7.046875 C 22.28125 -7.285156 22.171875 -7.546875 22.046875 -7.828125 C 21.929688 -8.117188 21.800781 -8.382812 21.65625 -8.625 Z M 21.65625 -8.625 "/></g></g></g><g fill="#ffffff" fill-opacity="1"><g transform="translate(126.568557, 57.234638)"><g/></g></g><g fill="#ffffff" fill-opacity="1"><g transform="translate(155.210344, 57.234638)"><g><path d="M 14.171875 -16.3125 C 13.035156 -16.3125 12.191406 -15.8125 11.640625 -14.8125 C 11.097656 -13.820312 10.753906 -12.613281 10.609375 -11.1875 C 10.472656 -9.757812 10.425781 -8.378906 10.46875 -7.046875 C 10.519531 -5.722656 10.566406 -4.726562 10.609375 -4.0625 C 10.710938 -3.394531 10.773438 -2.679688 10.796875 -1.921875 C 10.816406 -1.160156 10.445312 -0.613281 9.6875 -0.28125 C 9.164062 -0.09375 8.5625 -0.0546875 7.875 -0.171875 C 7.1875 -0.296875 6.554688 -0.332031 5.984375 -0.28125 C 5.648438 -0.28125 5.054688 -0.242188 4.203125 -0.171875 C 3.347656 -0.109375 2.515625 -0.109375 1.703125 -0.171875 C 0.898438 -0.242188 0.40625 -0.472656 0.21875 -0.859375 C 0.164062 -0.992188 0.140625 -1.253906 0.140625 -1.640625 C 0.140625 -4.296875 0.140625 -6.953125 0.140625 -9.609375 C 0.140625 -12.273438 0.140625 -14.914062 0.140625 -17.53125 C 0.140625 -22.5625 0.140625 -27.601562 0.140625 -32.65625 C 0.140625 -37.71875 0.117188 -42.769531 0.078125 -47.8125 C 0.078125 -48.757812 0.132812 -49.726562 0.25 -50.71875 C 0.363281 -51.71875 0.992188 -52.382812 2.140625 -52.71875 C 3.085938 -53.007812 4.082031 -53.046875 5.125 -52.828125 C 6.175781 -52.617188 7.195312 -52.488281 8.1875 -52.4375 C 11.75 -52.25 15.3125 -52.09375 18.875 -51.96875 C 22.4375 -51.851562 26.023438 -51.582031 29.640625 -51.15625 C 30.441406 -51.0625 31.234375 -50.914062 32.015625 -50.71875 C 32.804688 -50.53125 33.582031 -50.273438 34.34375 -49.953125 C 37.050781 -48.804688 38.960938 -47 40.078125 -44.53125 C 41.191406 -42.0625 41.84375 -39.445312 42.03125 -36.6875 C 42.132812 -34.789062 42.019531 -32.90625 41.6875 -31.03125 C 41.351562 -29.15625 40.734375 -27.382812 39.828125 -25.71875 C 39.347656 -24.914062 38.820312 -24.132812 38.25 -23.375 C 37.6875 -22.613281 37.050781 -21.898438 36.34375 -21.234375 C 36.050781 -20.953125 35.617188 -20.617188 35.046875 -20.234375 C 34.484375 -19.859375 34 -19.453125 33.59375 -19.015625 C 33.1875 -18.585938 33.007812 -18.113281 33.0625 -17.59375 C 33.101562 -17.40625 33.171875 -17.21875 33.265625 -17.03125 C 33.367188 -16.84375 33.46875 -16.628906 33.5625 -16.390625 C 34.695312 -14.679688 35.929688 -13.03125 37.265625 -11.4375 C 38.597656 -9.84375 39.859375 -8.21875 41.046875 -6.5625 C 41.566406 -5.800781 42.125 -5.039062 42.71875 -4.28125 C 43.3125 -3.519531 43.773438 -2.710938 44.109375 -1.859375 C 44.203125 -1.617188 44.296875 -1.332031 44.390625 -1 C 44.484375 -0.664062 44.363281 -0.40625 44.03125 -0.21875 C 43.882812 -0.164062 43.671875 -0.140625 43.390625 -0.140625 C 42.296875 -0.140625 41.203125 -0.128906 40.109375 -0.109375 C 39.015625 -0.0859375 37.925781 -0.078125 36.84375 -0.078125 C 35.75 -0.078125 34.640625 -0.0976562 33.515625 -0.140625 C 32.398438 -0.191406 31.414062 -0.617188 30.5625 -1.421875 C 29.945312 -2.035156 29.425781 -2.734375 29 -3.515625 C 28.570312 -4.304688 28.097656 -5.054688 27.578125 -5.765625 C 26.671875 -7.148438 25.726562 -8.519531 24.75 -9.875 C 23.78125 -11.226562 22.75 -12.546875 21.65625 -13.828125 C 20.332031 -15.242188 17.890625 -16.070312 14.328125 -16.3125 C 14.273438 -16.3125 14.25 -16.3125 14.25 -16.3125 C 14.25 -16.3125 14.222656 -16.3125 14.171875 -16.3125 Z M 11.25 -29.28125 C 11.488281 -28.238281 12.09375 -27.46875 13.0625 -26.96875 C 14.039062 -26.46875 15.179688 -26.15625 16.484375 -26.03125 C 17.796875 -25.914062 19.082031 -25.914062 20.34375 -26.03125 C 21.601562 -26.15625 22.613281 -26.3125 23.375 -26.5 C 25.457031 -27.019531 27.269531 -28.003906 28.8125 -29.453125 C 30.363281 -30.910156 31.140625 -32.78125 31.140625 -35.0625 C 31.140625 -36.769531 30.722656 -38.191406 29.890625 -39.328125 C 29.054688 -40.472656 27.972656 -41.375 26.640625 -42.03125 C 25.316406 -42.695312 23.878906 -43.132812 22.328125 -43.34375 C 20.785156 -43.5625 19.304688 -43.601562 17.890625 -43.46875 C 17.265625 -43.414062 16.476562 -43.316406 15.53125 -43.171875 C 14.582031 -43.035156 13.710938 -42.785156 12.921875 -42.421875 C 12.140625 -42.066406 11.65625 -41.488281 11.46875 -40.6875 C 10.570312 -36.832031 10.5 -33.03125 11.25 -29.28125 Z M 11.25 -29.28125 "/></g></g></g><g fill="#ffffff" fill-opacity="1"><g transform="translate(199.812212, 57.234638)"><g><path d="M 39.96875 -18.09375 C 39.394531 -17.625 38.550781 -17.304688 37.4375 -17.140625 C 36.320312 -16.972656 35.132812 -16.890625 33.875 -16.890625 C 32.613281 -16.890625 31.4375 -16.910156 30.34375 -16.953125 C 29.257812 -17.003906 28.429688 -17.03125 27.859375 -17.03125 C 25.390625 -16.976562 22.941406 -16.941406 20.515625 -16.921875 C 18.097656 -16.898438 15.65625 -16.890625 13.1875 -16.890625 C 12.425781 -16.890625 11.9375 -16.648438 11.71875 -16.171875 C 11.507812 -15.703125 11.488281 -15.171875 11.65625 -14.578125 C 11.820312 -13.984375 12.046875 -13.46875 12.328125 -13.03125 C 13.328125 -11.75 14.570312 -10.71875 16.0625 -9.9375 C 17.5625 -9.15625 19.117188 -8.671875 20.734375 -8.484375 C 22.535156 -8.285156 24.039062 -8.53125 25.25 -9.21875 C 26.46875 -9.914062 27.835938 -10.644531 29.359375 -11.40625 C 30.066406 -11.78125 30.550781 -12.015625 30.8125 -12.109375 C 31.070312 -12.203125 31.515625 -11.988281 32.140625 -11.46875 C 32.796875 -10.945312 33.421875 -10.234375 34.015625 -9.328125 C 34.609375 -8.429688 35.191406 -7.648438 35.765625 -6.984375 C 36.378906 -6.171875 36.351562 -5.410156 35.6875 -4.703125 C 35.03125 -3.992188 34.007812 -3.34375 32.625 -2.75 C 31.25 -2.15625 29.753906 -1.640625 28.140625 -1.203125 C 26.523438 -0.773438 25.0625 -0.441406 23.75 -0.203125 C 22.445312 0.0234375 21.5625 0.140625 21.09375 0.140625 C 17.90625 0.140625 14.96875 -0.488281 12.28125 -1.75 C 9.601562 -3.007812 7.3125 -4.71875 5.40625 -6.875 C 3.507812 -9.039062 2.085938 -11.472656 1.140625 -14.171875 C 0.191406 -16.878906 -0.175781 -19.71875 0.03125 -22.6875 C 0.25 -25.65625 1.164062 -28.539062 2.78125 -31.34375 C 4.007812 -33.53125 5.65625 -35.382812 7.71875 -36.90625 C 9.789062 -38.425781 12.070312 -39.550781 14.5625 -40.28125 C 17.0625 -41.019531 19.617188 -41.351562 22.234375 -41.28125 C 24.847656 -41.21875 27.328125 -40.695312 29.671875 -39.71875 C 32.023438 -38.75 34.082031 -37.289062 35.84375 -35.34375 C 36.644531 -34.4375 37.414062 -33.304688 38.15625 -31.953125 C 38.894531 -30.597656 39.523438 -29.132812 40.046875 -27.5625 C 40.566406 -26 40.882812 -24.46875 41 -22.96875 C 41.125 -21.476562 40.972656 -20.113281 40.546875 -18.875 C 40.453125 -18.59375 40.257812 -18.332031 39.96875 -18.09375 Z M 29.21875 -25.5 C 29.351562 -25.832031 29.398438 -26.191406 29.359375 -26.578125 C 29.304688 -27.148438 29.046875 -27.695312 28.578125 -28.21875 C 27.285156 -30.019531 25.617188 -31.347656 23.578125 -32.203125 C 21.535156 -33.054688 19.445312 -33.007812 17.3125 -32.0625 C 16.363281 -31.632812 15.472656 -31.085938 14.640625 -30.421875 C 13.804688 -29.753906 13.035156 -29.039062 12.328125 -28.28125 C 12.140625 -28.09375 11.945312 -27.878906 11.75 -27.640625 C 11.5625 -27.398438 11.421875 -27.140625 11.328125 -26.859375 C 11.140625 -26.285156 11.234375 -25.757812 11.609375 -25.28125 C 11.992188 -24.8125 12.46875 -24.578125 13.03125 -24.578125 L 27.578125 -24.578125 C 28.378906 -24.578125 28.925781 -24.882812 29.21875 -25.5 Z M 29.21875 -25.5 "/></g></g></g><g fill="#ffffff" fill-opacity="1"><g transform="translate(240.994057, 57.234638)"><g><path d="M 10.609375 -1 C 10.285156 -0.570312 9.8125 -0.332031 9.1875 -0.28125 C 8.570312 -0.238281 7.929688 -0.171875 7.265625 -0.078125 C 6.648438 -0.0234375 5.925781 0.0195312 5.09375 0.0625 C 4.257812 0.113281 3.472656 0.0351562 2.734375 -0.171875 C 2.003906 -0.390625 1.445312 -0.832031 1.0625 -1.5 C 0.5 -2.539062 0.164062 -3.691406 0.0625 -4.953125 C -0.03125 -6.210938 -0.00390625 -7.492188 0.140625 -8.796875 C 0.285156 -10.109375 0.359375 -11.332031 0.359375 -12.46875 C 0.398438 -14.695312 0.429688 -16.914062 0.453125 -19.125 C 0.484375 -21.332031 0.519531 -23.554688 0.5625 -25.796875 C 0.613281 -30.210938 0.625 -34.640625 0.59375 -39.078125 C 0.570312 -43.523438 0.515625 -47.957031 0.421875 -52.375 C 0.421875 -53.601562 0.679688 -54.488281 1.203125 -55.03125 C 1.734375 -55.582031 2.425781 -55.90625 3.28125 -56 C 4.132812 -56.09375 5.054688 -56.066406 6.046875 -55.921875 C 7.046875 -55.785156 8 -55.671875 8.90625 -55.578125 C 9.90625 -55.484375 10.554688 -54.945312 10.859375 -53.96875 C 11.171875 -53 11.3125 -51.953125 11.28125 -50.828125 C 11.257812 -49.710938 11.226562 -48.828125 11.1875 -48.171875 C 11.09375 -45.984375 11.03125 -43.769531 11 -41.53125 C 10.976562 -39.300781 10.96875 -37.070312 10.96875 -34.84375 C 10.96875 -29.425781 10.96875 -24.007812 10.96875 -18.59375 C 10.96875 -13.175781 10.96875 -7.757812 10.96875 -2.34375 C 10.96875 -1.78125 10.847656 -1.332031 10.609375 -1 Z M 10.609375 -1 "/></g></g></g><g fill="#ffffff" fill-opacity="1"><g transform="translate(252.464498, 57.234638)"><g><path d="M 34.84375 -1.78125 C 34.457031 -1.300781 33.863281 -1.039062 33.0625 -1 C 32.300781 -1 31.5625 -1.148438 30.84375 -1.453125 C 30.132812 -1.765625 29.4375 -2.070312 28.75 -2.375 C 28.0625 -2.6875 27.3125 -2.84375 26.5 -2.84375 C 25.976562 -2.84375 25.457031 -2.804688 24.9375 -2.734375 C 24.414062 -2.671875 23.941406 -2.59375 23.515625 -2.5 L 23.15625 -2.421875 C 21.78125 -2.179688 20.4375 -1.867188 19.125 -1.484375 C 17.820312 -1.109375 16.601562 -0.734375 15.46875 -0.359375 C 14.9375 -0.210938 14.394531 -0.09375 13.84375 0 C 13.300781 0.09375 12.75 0.140625 12.1875 0.140625 C 8.71875 0.140625 5.796875 -1.234375 3.421875 -3.984375 C 0.710938 -7.078125 -0.351562 -10.878906 0.21875 -15.390625 C 0.445312 -17.191406 1.070312 -18.804688 2.09375 -20.234375 C 3.125 -21.660156 4.421875 -22.753906 5.984375 -23.515625 C 6.796875 -23.890625 7.648438 -24.160156 8.546875 -24.328125 C 9.453125 -24.492188 10.378906 -24.648438 11.328125 -24.796875 C 11.566406 -24.796875 11.78125 -24.804688 11.96875 -24.828125 C 12.15625 -24.847656 12.347656 -24.882812 12.546875 -24.9375 L 21.875 -26.21875 C 23.101562 -26.40625 23.875 -26.769531 24.1875 -27.3125 C 24.5 -27.863281 24.675781 -28.304688 24.71875 -28.640625 C 24.8125 -29.453125 24.5625 -30.1875 23.96875 -30.84375 C 23.375 -31.507812 22.675781 -31.960938 21.875 -32.203125 C 20.40625 -32.773438 18.882812 -33.0625 17.3125 -33.0625 L 17.09375 -33.0625 C 15.625 -33.007812 14.222656 -32.789062 12.890625 -32.40625 C 11.566406 -32.03125 10.285156 -31.582031 9.046875 -31.0625 C 8.671875 -30.875 8.21875 -30.78125 7.6875 -30.78125 C 6.644531 -30.78125 5.613281 -31.125 4.59375 -31.8125 C 3.570312 -32.5 2.847656 -33.316406 2.421875 -34.265625 C 2.234375 -34.648438 2.148438 -34.972656 2.171875 -35.234375 C 2.191406 -35.492188 2.226562 -35.695312 2.28125 -35.84375 C 2.5625 -36.457031 3.117188 -37.015625 3.953125 -37.515625 C 4.785156 -38.015625 5.664062 -38.441406 6.59375 -38.796875 C 7.519531 -39.148438 8.289062 -39.421875 8.90625 -39.609375 C 12.320312 -40.703125 15.765625 -41.25 19.234375 -41.25 C 19.566406 -41.25 19.898438 -41.25 20.234375 -41.25 C 20.566406 -41.25 20.898438 -41.226562 21.234375 -41.1875 C 22.890625 -41.09375 24.726562 -40.769531 26.75 -40.21875 C 28.769531 -39.675781 30.492188 -38.644531 31.921875 -37.125 C 33.578125 -35.3125 34.570312 -33.503906 34.90625 -31.703125 C 35.289062 -29.660156 35.421875 -27.535156 35.296875 -25.328125 C 35.179688 -23.117188 35.148438 -20.96875 35.203125 -18.875 C 35.203125 -16.738281 35.203125 -14.585938 35.203125 -12.421875 C 35.203125 -10.265625 35.222656 -8.144531 35.265625 -6.0625 C 35.265625 -5.34375 35.300781 -4.578125 35.375 -3.765625 C 35.445312 -2.960938 35.269531 -2.300781 34.84375 -1.78125 Z M 24.515625 -14.03125 C 24.890625 -14.789062 25.003906 -15.429688 24.859375 -15.953125 C 24.722656 -16.484375 24.582031 -16.84375 24.4375 -17.03125 C 24.25 -17.3125 23.953125 -17.582031 23.546875 -17.84375 C 23.140625 -18.101562 22.582031 -18.257812 21.875 -18.3125 L 21.296875 -18.375 C 20.867188 -18.425781 20.429688 -18.453125 19.984375 -18.453125 C 19.535156 -18.453125 19.050781 -18.453125 18.53125 -18.453125 C 17.71875 -18.453125 16.738281 -18.367188 15.59375 -18.203125 C 14.457031 -18.035156 13.367188 -17.597656 12.328125 -16.890625 C 11.609375 -16.316406 11.15625 -15.722656 10.96875 -15.109375 C 10.78125 -14.585938 10.757812 -13.921875 10.90625 -13.109375 C 11.238281 -11.640625 11.878906 -10.5 12.828125 -9.6875 C 13.773438 -8.882812 14.914062 -8.484375 16.25 -8.484375 C 17.90625 -8.484375 19.539062 -9.023438 21.15625 -10.109375 C 22.769531 -11.203125 23.890625 -12.507812 24.515625 -14.03125 Z M 24.515625 -14.03125 "/></g></g></g><g fill="#ffffff" fill-opacity="1"><g transform="translate(288.017561, 57.234638)"><g><path d="M 10.828125 15.171875 C 9.640625 15.171875 8.453125 15.039062 7.265625 14.78125 C 6.078125 14.519531 4.9375 14.128906 3.84375 13.609375 C 2.75 13.085938 1.925781 12.410156 1.375 11.578125 C 0.832031 10.742188 0.894531 9.734375 1.5625 8.546875 C 2.1875 7.453125 2.742188 6.5625 3.234375 5.875 C 3.734375 5.1875 4.328125 4.75 5.015625 4.5625 C 5.710938 4.375 6.65625 4.539062 7.84375 5.0625 C 8.789062 5.4375 9.757812 5.492188 10.75 5.234375 C 11.75 4.972656 12.5625 4.460938 13.1875 3.703125 C 13.945312 2.847656 14.289062 2.015625 14.21875 1.203125 C 14.144531 0.398438 14.109375 -0.5 14.109375 -1.5 C 14.109375 -2.632812 13.8125 -3.832031 13.21875 -5.09375 C 12.625 -6.351562 12.132812 -7.503906 11.75 -8.546875 C 11.28125 -9.878906 10.78125 -11.207031 10.25 -12.53125 C 9.726562 -13.863281 9.207031 -15.195312 8.6875 -16.53125 C 7.644531 -19.28125 6.613281 -22.019531 5.59375 -24.75 C 4.570312 -27.488281 3.539062 -30.234375 2.5 -32.984375 C 2.164062 -33.984375 1.722656 -34.957031 1.171875 -35.90625 C 0.628906 -36.851562 0.265625 -37.851562 0.078125 -38.90625 C -0.117188 -39.90625 0.113281 -40.554688 0.78125 -40.859375 C 1.445312 -41.171875 2.265625 -41.3125 3.234375 -41.28125 C 4.210938 -41.257812 5.035156 -41.25 5.703125 -41.25 C 6.316406 -41.25 6.929688 -41.210938 7.546875 -41.140625 C 8.171875 -41.078125 8.765625 -40.898438 9.328125 -40.609375 C 10.328125 -40.140625 11.144531 -39.226562 11.78125 -37.875 C 12.425781 -36.519531 12.972656 -35.082031 13.421875 -33.5625 C 13.878906 -32.039062 14.273438 -30.78125 14.609375 -29.78125 C 15.273438 -28.164062 15.9375 -26.535156 16.59375 -24.890625 C 17.257812 -23.253906 18.070312 -21.675781 19.03125 -20.15625 C 19.832031 -18.875 20.632812 -18.390625 21.4375 -18.703125 C 22.25 -19.015625 22.894531 -19.765625 23.375 -20.953125 C 24.5625 -23.890625 25.734375 -26.832031 26.890625 -29.78125 C 28.054688 -32.726562 29.234375 -35.648438 30.421875 -38.546875 C 30.515625 -38.921875 30.644531 -39.265625 30.8125 -39.578125 C 30.976562 -39.890625 31.207031 -40.164062 31.5 -40.40625 C 31.875 -40.632812 32.265625 -40.785156 32.671875 -40.859375 C 33.078125 -40.929688 33.492188 -40.96875 33.921875 -40.96875 C 34.910156 -41.019531 35.890625 -41.054688 36.859375 -41.078125 C 37.835938 -41.097656 38.800781 -41.085938 39.75 -41.046875 C 40.039062 -41.046875 40.316406 -41.03125 40.578125 -41 C 40.835938 -40.976562 41.0625 -40.875 41.25 -40.6875 C 41.632812 -40.394531 41.789062 -39.988281 41.71875 -39.46875 C 41.644531 -38.945312 41.515625 -38.472656 41.328125 -38.046875 C 38.710938 -31.492188 36.070312 -24.953125 33.40625 -18.421875 C 30.75 -11.890625 28.164062 -5.34375 25.65625 1.21875 C 25.082031 2.726562 24.507812 4.28125 23.9375 5.875 C 23.363281 7.46875 22.582031 8.90625 21.59375 10.1875 C 20.3125 11.800781 18.71875 13.023438 16.8125 13.859375 C 14.914062 14.691406 12.921875 15.128906 10.828125 15.171875 Z M 10.828125 15.171875 "/></g></g></g></g></g><g transform="matrix(1, 0, 0, 1, 18, 215)"><g clip-path="url(#69406481fa)"><g fill="#ffffff" fill-opacity="1"><g transform="translate(1.025691, 10.495568)"><g><path d="M 2.421875 -8.984375 C 3.109375 -8.984375 3.613281 -8.78125 3.9375 -8.375 C 4.269531 -7.96875 4.4375 -7.425781 4.4375 -6.75 L 4.4375 -5.9375 L 3.5 -5.9375 L 3.5 -6.796875 C 3.5 -7.203125 3.414062 -7.515625 3.25 -7.734375 C 3.082031 -7.960938 2.816406 -8.078125 2.453125 -8.078125 C 2.097656 -8.078125 1.832031 -7.960938 1.65625 -7.734375 C 1.488281 -7.515625 1.40625 -7.203125 1.40625 -6.796875 L 1.40625 -2.09375 C 1.40625 -1.6875 1.488281 -1.367188 1.65625 -1.140625 C 1.832031 -0.921875 2.097656 -0.8125 2.453125 -0.8125 C 2.816406 -0.8125 3.082031 -0.921875 3.25 -1.140625 C 3.414062 -1.367188 3.5 -1.6875 3.5 -2.09375 L 3.5 -3.25 L 4.4375 -3.25 L 4.4375 -2.140625 C 4.4375 -1.460938 4.269531 -0.921875 3.9375 -0.515625 C 3.613281 -0.109375 3.109375 0.09375 2.421875 0.09375 C 1.742188 0.09375 1.242188 -0.109375 0.921875 -0.515625 C 0.597656 -0.921875 0.4375 -1.460938 0.4375 -2.140625 L 0.4375 -6.75 C 0.4375 -7.082031 0.472656 -7.382812 0.546875 -7.65625 C 0.628906 -7.9375 0.753906 -8.171875 0.921875 -8.359375 C 1.085938 -8.554688 1.296875 -8.707031 1.546875 -8.8125 C 1.796875 -8.925781 2.085938 -8.984375 2.421875 -8.984375 Z M 2.421875 -8.984375 "/></g></g></g><g fill="#ffffff" fill-opacity="1"><g transform="translate(5.848042, 10.495568)"><g><path d="M 0.4375 -6.75 C 0.4375 -7.4375 0.601562 -7.976562 0.9375 -8.375 C 1.269531 -8.78125 1.78125 -8.984375 2.46875 -8.984375 C 3.15625 -8.984375 3.664062 -8.78125 4 -8.375 C 4.34375 -7.976562 4.515625 -7.4375 4.515625 -6.75 L 4.515625 -2.140625 C 4.515625 -1.460938 4.34375 -0.921875 4 -0.515625 C 3.664062 -0.109375 3.15625 0.09375 2.46875 0.09375 C 1.78125 0.09375 1.269531 -0.109375 0.9375 -0.515625 C 0.601562 -0.921875 0.4375 -1.460938 0.4375 -2.140625 Z M 1.40625 -2.09375 C 1.40625 -1.6875 1.492188 -1.367188 1.671875 -1.140625 C 1.847656 -0.921875 2.113281 -0.8125 2.46875 -0.8125 C 2.832031 -0.8125 3.097656 -0.921875 3.265625 -1.140625 C 3.429688 -1.367188 3.515625 -1.6875 3.515625 -2.09375 L 3.515625 -6.796875 C 3.515625 -7.203125 3.429688 -7.515625 3.265625 -7.734375 C 3.097656 -7.960938 2.832031 -8.078125 2.46875 -8.078125 C 2.113281 -8.078125 1.847656 -7.960938 1.671875 -7.734375 C 1.492188 -7.515625 1.40625 -7.203125 1.40625 -6.796875 Z M 1.40625 -2.09375 "/></g></g></g><g fill="#ffffff" fill-opacity="1"><g transform="translate(10.784607, 10.495568)"><g><path d="M 1.390625 0 L 0.5 0 L 0.5 -8.890625 L 1.75 -8.890625 L 3.8125 -2.46875 L 3.8125 -8.890625 L 4.6875 -8.890625 L 4.6875 0 L 3.65625 0 L 1.390625 -7.1875 Z M 1.390625 0 "/></g></g></g><g fill="#ffffff" fill-opacity="1"><g transform="translate(15.974976, 10.495568)"><g><path d="M 1.390625 0 L 0.5 0 L 0.5 -8.890625 L 1.75 -8.890625 L 3.8125 -2.46875 L 3.8125 -8.890625 L 4.6875 -8.890625 L 4.6875 0 L 3.65625 0 L 1.390625 -7.1875 Z M 1.390625 0 "/></g></g></g><g fill="#ffffff" fill-opacity="1"><g transform="translate(21.165344, 10.495568)"><g><path d="M 3.671875 -4.953125 L 3.671875 -4.0625 L 1.5 -4.0625 L 1.5 -0.90625 L 4.171875 -0.90625 L 4.171875 0 L 0.515625 0 L 0.515625 -8.890625 L 4.171875 -8.890625 L 4.171875 -7.984375 L 1.5 -7.984375 L 1.5 -4.953125 Z M 3.671875 -4.953125 "/></g></g></g><g fill="#ffffff" fill-opacity="1"><g transform="translate(25.733893, 10.495568)"><g><path d="M 2.421875 -8.984375 C 3.109375 -8.984375 3.613281 -8.78125 3.9375 -8.375 C 4.269531 -7.96875 4.4375 -7.425781 4.4375 -6.75 L 4.4375 -5.9375 L 3.5 -5.9375 L 3.5 -6.796875 C 3.5 -7.203125 3.414062 -7.515625 3.25 -7.734375 C 3.082031 -7.960938 2.816406 -8.078125 2.453125 -8.078125 C 2.097656 -8.078125 1.832031 -7.960938 1.65625 -7.734375 C 1.488281 -7.515625 1.40625 -7.203125 1.40625 -6.796875 L 1.40625 -2.09375 C 1.40625 -1.6875 1.488281 -1.367188 1.65625 -1.140625 C 1.832031 -0.921875 2.097656 -0.8125 2.453125 -0.8125 C 2.816406 -0.8125 3.082031 -0.921875 3.25 -1.140625 C 3.414062 -1.367188 3.5 -1.6875 3.5 -2.09375 L 3.5 -3.25 L 4.4375 -3.25 L 4.4375 -2.140625 C 4.4375 -1.460938 4.269531 -0.921875 3.9375 -0.515625 C 3.613281 -0.109375 3.109375 0.09375 2.421875 0.09375 C 1.742188 0.09375 1.242188 -0.109375 0.921875 -0.515625 C 0.597656 -0.921875 0.4375 -1.460938 0.4375 -2.140625 L 0.4375 -6.75 C 0.4375 -7.082031 0.472656 -7.382812 0.546875 -7.65625 C 0.628906 -7.9375 0.753906 -8.171875 0.921875 -8.359375 C 1.085938 -8.554688 1.296875 -8.707031 1.546875 -8.8125 C 1.796875 -8.925781 2.085938 -8.984375 2.421875 -8.984375 Z M 2.421875 -8.984375 "/></g></g></g><g fill="#ffffff" fill-opacity="1"><g transform="translate(30.556244, 10.495568)"><g><path d="M 1.796875 0 L 1.796875 -7.984375 L 0.171875 -7.984375 L 0.171875 -8.890625 L 4.4375 -8.890625 L 4.4375 -7.984375 L 2.796875 -7.984375 L 2.796875 0 Z M 1.796875 0 "/></g></g></g></g></g><path fill="#ffffff" d="M 170.144531 190.515625 C 170.144531 190.691406 170.007812 190.8125 169.847656 190.8125 C 169.691406 190.8125 169.550781 190.691406 169.550781 190.515625 C 169.550781 189.207031 168.488281 188.128906 167.164062 188.128906 C 165.835938 188.128906 164.757812 189.207031 164.757812 190.515625 C 164.757812 190.691406 164.632812 190.8125 164.476562 190.8125 C 164.304688 190.8125 164.179688 190.691406 164.179688 190.515625 C 164.179688 188.878906 165.523438 187.550781 167.164062 187.550781 C 168.804688 187.550781 170.144531 188.878906 170.144531 190.515625 Z M 170.144531 190.515625 " fill-opacity="1" fill-rule="evenodd"/><path fill="#ffffff" d="M 164.757812 190.515625 C 164.757812 190.691406 164.632812 190.8125 164.476562 190.8125 C 164.320312 190.8125 164.179688 190.691406 164.179688 190.515625 C 164.179688 189.207031 163.101562 188.128906 161.792969 188.128906 C 160.464844 188.128906 159.386719 189.207031 159.386719 190.515625 C 159.386719 190.691406 159.261719 190.8125 159.089844 190.8125 C 158.929688 190.8125 158.808594 190.691406 158.808594 190.515625 C 158.808594 188.878906 160.136719 187.550781 161.792969 187.550781 C 163.429688 187.550781 164.757812 188.878906 164.757812 190.515625 Z M 164.757812 190.515625 " fill-opacity="1" fill-rule="evenodd"/><path fill="#ffffff" d="M 159.386719 190.515625 C 159.386719 190.691406 159.261719 190.8125 159.089844 190.8125 C 158.929688 190.8125 158.808594 190.691406 158.808594 190.515625 C 158.808594 189.207031 157.726562 188.128906 156.402344 188.128906 C 155.09375 188.128906 154.011719 189.207031 154.011719 190.515625 C 154.011719 190.691406 153.875 190.8125 153.714844 190.8125 C 153.558594 190.8125 153.4375 190.691406 153.4375 190.515625 C 153.4375 188.878906 154.761719 187.550781 156.402344 187.550781 C 158.058594 187.550781 159.386719 188.878906 159.386719 190.515625 Z M 159.386719 190.515625 " fill-opacity="1" fill-rule="evenodd"/><path fill="#ffffff" d="M 154.011719 190.515625 C 154.011719 190.691406 153.875 190.8125 153.714844 190.8125 C 153.558594 190.8125 153.4375 190.691406 153.4375 190.515625 C 153.4375 189.207031 152.355469 188.128906 151.03125 188.128906 C 149.707031 188.128906 148.640625 189.207031 148.640625 190.515625 C 148.640625 190.691406 148.503906 190.8125 148.34375 190.8125 C 148.1875 190.8125 148.046875 190.691406 148.046875 190.515625 C 148.046875 188.878906 149.390625 187.550781 151.03125 187.550781 C 152.671875 187.550781 154.011719 188.878906 154.011719 190.515625 Z M 154.011719 190.515625 " fill-opacity="1" fill-rule="evenodd"/><path fill="#ffffff" d="M 148.640625 190.515625 C 148.640625 190.691406 148.503906 190.8125 148.34375 190.8125 C 148.1875 190.8125 148.046875 190.691406 148.046875 190.515625 C 148.046875 189.207031 146.984375 188.128906 145.660156 188.128906 C 144.332031 188.128906 143.253906 189.207031 143.253906 190.515625 C 143.253906 190.691406 143.128906 190.8125 142.972656 190.8125 C 142.800781 190.8125 142.675781 190.691406 142.675781 190.515625 C 142.675781 188.878906 144.019531 187.550781 145.660156 187.550781 C 147.296875 187.550781 148.640625 188.878906 148.640625 190.515625 Z M 148.640625 190.515625 " fill-opacity="1" fill-rule="evenodd"/><g clip-path="url(#dfcf704622)"><path fill="#ffffff" d="M 166.746094 195.085938 C 166.746094 197.804688 165.75 199.933594 164.476562 199.933594 C 163.1875 199.933594 162.191406 197.804688 162.191406 195.085938 C 162.191406 192.363281 163.1875 190.238281 164.476562 190.238281 C 165.75 190.238281 166.746094 192.363281 166.746094 195.085938 Z M 162.769531 195.085938 C 162.769531 197.597656 163.675781 199.339844 164.476562 199.339844 C 165.28125 199.339844 166.167969 197.597656 166.167969 195.085938 C 166.167969 192.574219 165.28125 190.8125 164.476562 190.8125 C 163.675781 190.8125 162.769531 192.574219 162.769531 195.085938 Z M 162.769531 195.085938 " fill-opacity="1" fill-rule="evenodd"/></g><g clip-path="url(#2bdf45f9cd)"><path fill="#ffffff" d="M 161.375 195.085938 C 161.375 197.804688 160.378906 199.933594 159.089844 199.933594 C 157.816406 199.933594 156.820312 197.804688 156.820312 195.085938 C 156.820312 192.363281 157.816406 190.238281 159.089844 190.238281 C 160.378906 190.238281 161.375 192.363281 161.375 195.085938 Z M 157.398438 195.085938 C 157.398438 197.597656 158.285156 199.339844 159.089844 199.339844 C 159.890625 199.339844 160.796875 197.597656 160.796875 195.085938 C 160.796875 192.574219 159.890625 190.8125 159.089844 190.8125 C 158.285156 190.8125 157.398438 192.574219 157.398438 195.085938 Z M 157.398438 195.085938 " fill-opacity="1" fill-rule="evenodd"/></g><g clip-path="url(#82dc0ee1c7)"><path fill="#ffffff" d="M 156 195.085938 C 156 197.804688 155.007812 199.933594 153.714844 199.933594 C 152.445312 199.933594 151.449219 197.804688 151.449219 195.085938 C 151.449219 192.363281 152.445312 190.238281 153.714844 190.238281 C 155.007812 190.238281 156 192.363281 156 195.085938 Z M 152.023438 195.085938 C 152.023438 197.597656 152.914062 199.339844 153.714844 199.339844 C 154.519531 199.339844 155.425781 197.597656 155.425781 195.085938 C 155.425781 192.574219 154.519531 190.8125 153.714844 190.8125 C 152.914062 190.8125 152.023438 192.574219 152.023438 195.085938 Z M 152.023438 195.085938 " fill-opacity="1" fill-rule="evenodd"/></g><g clip-path="url(#a737ab25a2)"><path fill="#ffffff" d="M 150.628906 195.085938 C 150.628906 197.804688 149.617188 199.933594 148.34375 199.933594 C 147.070312 199.933594 146.058594 197.804688 146.058594 195.085938 C 146.058594 192.363281 147.070312 190.238281 148.34375 190.238281 C 149.617188 190.238281 150.628906 192.363281 150.628906 195.085938 Z M 146.652344 195.085938 C 146.652344 197.597656 147.542969 199.339844 148.34375 199.339844 C 149.148438 199.339844 150.035156 197.597656 150.035156 195.085938 C 150.035156 192.574219 149.148438 190.8125 148.34375 190.8125 C 147.542969 190.8125 146.652344 192.574219 146.652344 195.085938 Z M 146.652344 195.085938 " fill-opacity="1" fill-rule="evenodd"/></g><g clip-path="url(#720d780f45)"><path fill="#ffffff" d="M 171.296875 191.683594 C 171.296875 192.46875 170.652344 193.113281 169.847656 193.113281 C 169.046875 193.113281 168.402344 192.46875 168.402344 191.683594 C 168.402344 190.882812 169.046875 190.238281 169.847656 190.238281 C 170.652344 190.238281 171.296875 190.882812 171.296875 191.683594 Z M 168.976562 191.683594 C 168.976562 192.15625 169.378906 192.539062 169.847656 192.539062 C 170.320312 192.539062 170.703125 192.15625 170.703125 191.683594 C 170.703125 191.195312 170.320312 190.8125 169.847656 190.8125 C 169.378906 190.8125 168.976562 191.195312 168.976562 191.683594 Z M 168.976562 191.683594 " fill-opacity="1" fill-rule="evenodd"/></g><g clip-path="url(#a709cfff9b)"><path fill="#ffffff" d="M 144.421875 191.683594 C 144.421875 192.46875 143.757812 193.113281 142.972656 193.113281 C 142.171875 193.113281 141.527344 192.46875 141.527344 191.683594 C 141.527344 190.882812 142.171875 190.238281 142.972656 190.238281 C 143.757812 190.238281 144.421875 190.882812 144.421875 191.683594 Z M 142.101562 191.683594 C 142.101562 192.15625 142.503906 192.539062 142.972656 192.539062 C 143.445312 192.539062 143.828125 192.15625 143.828125 191.683594 C 143.828125 191.195312 143.445312 190.8125 142.972656 190.8125 C 142.503906 190.8125 142.101562 191.195312 142.101562 191.683594 Z M 142.101562 191.683594 " fill-opacity="1" fill-rule="evenodd"/></g><path fill="#ffffff" d="M 166.832031 185.5625 C 166.832031 185.71875 166.691406 185.84375 166.535156 185.84375 L 146.234375 185.84375 C 146.078125 185.84375 145.957031 185.71875 145.957031 185.5625 C 145.957031 185.390625 146.078125 185.265625 146.234375 185.265625 L 166.535156 185.265625 C 166.691406 185.265625 166.832031 185.390625 166.832031 185.5625 Z M 166.832031 185.5625 " fill-opacity="1" fill-rule="evenodd"/><path fill="#ffffff" d="M 155.285156 180.46875 C 155.285156 181.675781 154.292969 182.667969 153.089844 182.667969 C 151.867188 182.667969 150.890625 181.675781 150.890625 180.46875 C 150.890625 179.25 151.867188 178.273438 153.089844 178.273438 C 154.292969 178.273438 155.285156 179.25 155.285156 180.46875 Z M 151.46875 180.46875 C 151.46875 181.359375 152.199219 182.074219 153.089844 182.074219 C 153.976562 182.074219 154.710938 181.359375 154.710938 180.46875 C 154.710938 179.582031 153.976562 178.847656 153.089844 178.847656 C 152.199219 178.847656 151.46875 179.582031 151.46875 180.46875 Z M 151.46875 180.46875 " fill-opacity="1" fill-rule="evenodd"/><path fill="#ffffff" d="M 161.878906 180.46875 C 161.878906 181.675781 160.902344 182.667969 159.679688 182.667969 C 158.476562 182.667969 157.484375 181.675781 157.484375 180.46875 C 157.484375 179.25 158.476562 178.273438 159.679688 178.273438 C 160.902344 178.273438 161.878906 179.25 161.878906 180.46875 Z M 158.078125 180.46875 C 158.078125 181.359375 158.792969 182.074219 159.679688 182.074219 C 160.570312 182.074219 161.304688 181.359375 161.304688 180.46875 C 161.304688 179.582031 160.570312 178.847656 159.679688 178.847656 C 158.792969 178.847656 158.078125 179.582031 158.078125 180.46875 Z M 158.078125 180.46875 " fill-opacity="1" fill-rule="evenodd"/><path fill="#ffffff" d="M 151.46875 180.46875 C 151.46875 180.628906 151.34375 180.75 151.1875 180.75 L 143.601562 180.75 C 143.445312 180.75 143.304688 180.628906 143.304688 180.46875 C 143.304688 180.3125 143.445312 180.175781 143.601562 180.175781 L 151.171875 180.175781 C 151.34375 180.175781 151.46875 180.3125 151.46875 180.46875 Z M 151.46875 180.46875 " fill-opacity="1" fill-rule="evenodd"/><path fill="#ffffff" d="M 169.464844 180.46875 C 169.464844 180.628906 169.34375 180.75 169.167969 180.75 L 161.601562 180.75 C 161.441406 180.75 161.304688 180.628906 161.304688 180.46875 C 161.304688 180.3125 161.441406 180.175781 161.601562 180.175781 L 169.167969 180.175781 C 169.34375 180.175781 169.464844 180.3125 169.464844 180.46875 Z M 169.464844 180.46875 " fill-opacity="1" fill-rule="evenodd"/><g clip-path="url(#0dacc124b4)"><path fill="#ffffff" d="M 158.722656 179.023438 C 158.722656 179.09375 158.703125 179.144531 158.667969 179.199219 C 158.582031 179.335938 158.390625 179.355469 158.269531 179.265625 L 153 175.585938 C 152.878906 175.5 152.84375 175.308594 152.933594 175.1875 C 153.019531 175.046875 153.210938 175.011719 153.332031 175.117188 L 158.601562 178.796875 C 158.6875 178.847656 158.722656 178.9375 158.722656 179.023438 Z M 158.722656 179.023438 " fill-opacity="1" fill-rule="evenodd"/></g><g clip-path="url(#9dc7c00777)"><g clip-path="url(#4e2d33e814)"><g transform="matrix(1, 0, 0, 1, 336, 208)"><g clip-path="url(#296a960934)"><g clip-path="url(#313b767c72)"><g clip-path="url(#72fcb74e7f)"><path fill="#fcfcfc" d="M 0.957031 0.105469 L 19.980469 0.105469 L 19.980469 16.84375 L 0.957031 16.84375 Z M 0.957031 0.105469 " fill-opacity="1" fill-rule="nonzero"/></g></g></g></g></g></g></svg>